<?xml version="1.0" encoding="UTF-8"?><svg id="_レイヤー_1" xmlns="http://www.w3.org/2000/svg" viewBox="0 0 180 180"><defs><style>.cls-1{fill:#ffbe55;}</style></defs><path class="cls-1" d="m20.29,67.85l3.3,5.77c2.92,5.1,7.7,8.86,13.36,10.48l20.36,5.8c6.05,1.72,10.2,7.24,10.2,13.54v14.03c0,3.87,2.18,7.38,5.63,9.11s5.62,5.24,5.62,9.11v13.71c0,5.48,5.24,9.46,10.51,7.95,5.66-1.62,10.05-6.15,11.5-11.88l.98-3.94c1.48-5.94,5.34-11.04,10.65-14.06l2.85-1.62c5.27-2.99,8.51-8.61,8.51-14.66v-2.92c0-4.46-1.79-8.75-4.96-11.92l-1.37-1.37c-3.16-3.16-7.45-4.96-11.92-4.96h-15.15c-3.9,0-7.77-1.02-11.18-2.95l-12.13-6.93c-1.51-.88-2.67-2.29-3.23-3.94-1.12-3.38.39-7.03,3.59-8.61l2.07-1.05c2.32-1.16,5.03-1.37,7.49-.53l8.16,2.71c2.88.95,6.05-.14,7.7-2.64,1.65-2.46,1.48-5.73-.42-8.02l-4.78-5.73c-3.52-4.22-3.48-10.37.11-14.52l5.52-6.43c3.09-3.62,3.59-8.79,1.23-12.9l-.84-1.48c-1.23-.07-2.43-.11-3.66-.11-32.62,0-60.29,21.41-69.68,50.98Zm142.84,22.15c0-12.94-3.38-25.1-9.28-35.68l-9,3.62c-5.52,2.21-8.37,8.37-6.5,13.99l5.94,17.82c1.23,3.66,4.22,6.43,7.95,7.35l10.23,2.57c.42-3.16.63-6.4.63-9.67h.04ZM0,90C0,40.29,40.29,0,90,0s90,40.29,90,90-40.29,90-90,90S0,139.71,0,90Z"/></svg>